<?xml version="1.0" standalone="no"?>
<!DOCTYPE svg PUBLIC "-//W3C//DTD SVG 20010904//EN"
 "http://www.w3.org/TR/2001/REC-SVG-20010904/DTD/svg10.dtd">
<svg version="1.0" xmlns="http://www.w3.org/2000/svg"
 width="700.000000pt" height="700.000000pt" viewBox="0 0 700.000000 700.000000"
 preserveAspectRatio="xMidYMid meet">
<metadata>
Created by potrace 1.14, written by Peter Selinger 2001-2017
</metadata>
<g transform="translate(0.000000,700.000000) scale(0.100000,-0.100000)"
fill="#000000" stroke="none">
<path d="M4870 6420 c0 -5 -7 -10 -15 -10 -12 0 -15 -13 -15 -59 0 -43 -4 -60
-15 -65 -9 -3 -15 -19 -15 -41 0 -19 -4 -35 -10 -35 -5 0 -10 -7 -10 -15 0 -8
-4 -15 -10 -15 -5 0 -10 -16 -10 -35 0 -24 -5 -35 -15 -35 -10 0 -15 -10 -15
-31 0 -21 -9 -40 -25 -55 -16 -15 -25 -34 -25 -54 0 -20 -5 -30 -15 -30 -9 0
-15 -9 -15 -25 0 -14 -4 -25 -10 -25 -5 0 -10 -7 -10 -15 0 -8 -4 -15 -10 -15
-5 0 -12 -11 -16 -25 -3 -14 -10 -25 -15 -25 -5 0 -9 -7 -9 -15 0 -8 -4 -15
-10 -15 -5 0 -10 -8 -10 -19 0 -10 -7 -24 -15 -31 -8 -7 -15 -21 -15 -32 0
-10 -11 -29 -25 -42 -16 -15 -25 -34 -25 -54 0 -17 -5 -32 -12 -34 -6 -2 -13
-31 -16 -64 -3 -46 0 -64 12 -76 12 -12 16 -36 16 -92 0 -44 -4 -76 -10 -76
-5 0 -10 -4 -10 -10 0 -5 15 -10 34 -10 35 0 46 13 46 51 0 10 5 19 10 19 6 0
10 7 10 16 0 23 44 14 48 -10 5 -26 26 -46 48 -46 17 0 54 36 54 52 0 5 5 6
10 3 6 -3 10 1 10 10 0 9 11 26 25 39 14 13 25 27 25 32 0 5 11 21 25 36 14
15 25 36 25 46 0 11 7 22 15 26 9 3 15 18 15 36 0 16 5 30 10 30 6 0 10 7 10
15 0 8 5 15 10 15 6 0 10 28 10 65 0 51 3 65 15 65 10 0 15 10 15 30 0 20 9
39 25 54 20 18 25 33 25 69 0 25 5 47 10 49 19 6 23 73 6 91 -9 8 -16 18 -16
22 0 10 -28 35 -39 35 -7 0 -11 52 -11 156 0 121 -3 159 -14 170 -17 16 -56
19 -56 4z"/>
<path d="M2050 6226 c0 -28 4 -35 25 -40 20 -5 25 -13 25 -37 0 -17 7 -37 15
-45 8 -9 15 -26 15 -40 0 -13 5 -24 10 -24 6 0 10 -7 10 -15 0 -8 5 -15 10
-15 6 0 10 -8 10 -19 0 -10 7 -24 15 -31 8 -7 15 -19 15 -26 0 -8 5 -14 10
-14 6 0 10 -11 10 -25 0 -14 7 -28 15 -31 9 -4 15 -19 15 -36 0 -18 9 -38 25
-52 16 -15 25 -34 25 -54 0 -17 6 -32 15 -36 8 -3 15 -15 15 -26 0 -11 5 -20
10 -20 6 0 10 -7 10 -15 0 -8 5 -15 10 -15 6 0 10 -9 10 -21 0 -11 7 -27 15
-35 8 -9 15 -25 15 -36 0 -11 11 -31 25 -44 16 -15 25 -34 25 -53 0 -23 5 -30
23 -33 16 -2 23 -11 25 -33 2 -16 10 -34 18 -38 8 -4 14 -17 14 -29 0 -11 8
-28 19 -37 10 -9 21 -26 25 -38 4 -13 12 -23 17 -23 5 0 9 -7 9 -15 0 -8 7
-15 16 -15 10 0 14 -5 10 -15 -4 -10 12 -33 45 -66 28 -27 51 -59 52 -70 3
-48 77 -4 77 46 0 19 8 36 20 45 14 10 20 26 20 52 0 21 -4 38 -10 38 -5 0
-10 7 -10 15 0 8 -4 15 -10 15 -5 0 -10 15 -10 34 0 19 -7 41 -15 50 -8 8 -15
19 -15 25 0 6 -4 11 -10 11 -5 0 -10 9 -10 21 0 11 -7 27 -15 35 -8 9 -15 27
-15 40 0 14 -11 36 -25 50 -14 14 -25 36 -25 49 0 14 -4 25 -10 25 -5 0 -10 7
-10 16 0 18 -31 77 -42 82 -5 2 -8 15 -8 28 0 15 -6 24 -15 24 -9 0 -15 9 -15
25 0 14 -4 25 -10 25 -5 0 -10 5 -10 11 0 6 -7 17 -15 25 -8 9 -15 24 -15 34
0 23 -82 110 -104 110 -9 0 -16 5 -16 10 0 6 -11 10 -25 10 -14 0 -25 5 -25
10 0 6 -11 10 -24 10 -14 0 -31 7 -40 15 -8 8 -19 15 -25 15 -6 0 -11 11 -11
24 0 17 -7 26 -25 30 -16 4 -25 13 -25 26 0 11 -4 20 -10 20 -5 0 -12 11 -16
25 -7 27 -20 33 -27 13 -2 -8 -8 -9 -13 -4 -5 5 -4 11 4 13 6 3 12 9 12 15 0
13 -26 38 -39 38 -6 0 -11 7 -11 15 0 8 -7 15 -15 15 -8 0 -15 5 -15 10 0 6
-4 10 -10 10 -5 0 -10 -15 -10 -34z"/>
<path d="M3298 6130 c-30 -31 -37 -70 -13 -70 8 0 15 -7 15 -15 0 -8 5 -15 10
-15 6 0 10 -5 10 -11 0 -5 -4 -7 -10 -4 -5 3 -10 -1 -10 -9 0 -9 -7 -16 -15
-16 -11 0 -15 -13 -15 -53 0 -42 5 -58 25 -79 24 -26 25 -33 25 -147 0 -78 -4
-121 -11 -123 -16 -5 -18 -140 -1 -145 6 -3 12 -15 12 -28 0 -13 5 -25 11 -27
6 -2 13 -25 16 -51 3 -26 10 -47 14 -47 5 0 9 -10 9 -21 0 -24 26 -48 52 -49
20 0 30 28 28 73 -3 51 -1 67 10 67 6 0 10 -5 10 -11 0 -13 25 -39 38 -39 6 0
13 -6 16 -12 5 -10 7 -10 12 0 3 6 12 12 20 12 8 0 14 7 14 15 0 8 4 15 10 15
5 0 12 11 16 25 5 22 12 25 51 25 54 0 73 17 73 64 0 23 5 36 13 36 22 0 42
74 29 107 -6 15 -14 65 -17 111 -4 45 -11 82 -16 82 -5 0 -9 16 -9 36 0 31
-18 64 -35 64 -3 0 -26 21 -51 47 l-45 46 7 64 6 63 -51 0 c-28 0 -51 -4 -51
-10 0 -5 -7 -10 -15 -10 -8 0 -15 5 -15 10 0 6 -11 10 -25 10 -14 0 -25 4 -25
10 0 5 -11 12 -25 16 -14 3 -25 10 -25 15 0 20 -47 6 -72 -21z"/>
<path d="M6038 5810 c-16 -16 -28 -34 -28 -39 0 -6 -5 -11 -10 -11 -6 0 -22
-11 -36 -25 -18 -18 -36 -25 -64 -25 -22 0 -40 -4 -40 -10 0 -5 -11 -10 -25
-10 -14 0 -25 -4 -25 -10 0 -5 -11 -12 -25 -16 -14 -3 -23 -10 -20 -14 3 -5
-5 -10 -17 -12 -13 -2 -27 -13 -33 -25 -5 -13 -15 -23 -21 -23 -7 0 -14 -7
-18 -15 -3 -8 -10 -15 -15 -15 -12 0 -101 -91 -101 -103 0 -4 -9 -17 -20 -29
-11 -12 -20 -28 -20 -37 0 -8 -25 -39 -55 -68 -30 -30 -55 -60 -55 -67 0 -8
-9 -16 -21 -19 -11 -3 -23 -15 -26 -26 -3 -12 -8 -21 -12 -21 -11 0 -41 -57
-41 -79 0 -12 -4 -21 -10 -21 -5 0 -10 -22 -10 -50 l0 -50 71 0 c69 0 99 12
99 39 0 6 5 11 11 11 7 0 26 15 43 34 18 18 42 37 54 40 12 4 22 12 22 17 0 5
5 9 11 9 6 0 17 6 24 13 31 27 44 37 51 37 4 0 22 16 41 35 19 19 38 35 43 35
5 0 20 11 34 25 14 14 34 25 45 25 11 0 23 5 26 10 12 19 45 11 45 -10 0 -14
-7 -20 -21 -20 -11 0 -27 -6 -34 -12 -34 -30 -45 -38 -55 -38 -14 0 -40 -25
-40 -39 0 -6 -5 -11 -11 -11 -6 0 -17 -6 -24 -12 -33 -30 -45 -38 -55 -38 -5
0 -10 -4 -10 -10 0 -5 -7 -10 -15 -10 -8 0 -25 -11 -39 -25 -14 -14 -30 -25
-36 -25 -5 0 -10 -7 -10 -15 0 -8 -7 -15 -15 -15 -9 0 -26 -11 -39 -25 -13
-14 -31 -25 -40 -25 -20 0 -56 -35 -56 -55 0 -8 -4 -15 -10 -15 -5 0 -10 -11
-10 -25 0 -14 4 -25 9 -25 5 0 12 -11 15 -25 6 -24 46 -37 46 -15 0 6 5 10 11
10 7 0 26 15 43 34 18 18 42 37 54 40 12 4 22 12 22 17 0 5 9 9 21 9 22 0 49
22 49 39 0 6 10 11 21 11 12 0 32 11 45 25 13 14 28 25 34 25 6 0 8 5 5 10 -3
6 1 10 9 10 9 0 16 7 16 15 0 8 5 15 10 15 10 0 22 8 55 38 7 6 18 12 24 12 6
0 11 5 11 11 0 14 25 39 39 39 6 0 11 4 11 9 0 5 9 13 20 16 11 4 52 38 91 76
38 38 74 69 79 69 6 0 10 7 10 15 0 8 5 15 10 15 6 0 10 11 10 25 0 19 -5 25
-21 25 -26 0 -49 23 -49 48 0 11 -9 22 -20 25 -24 6 -60 -2 -60 -14 0 -5 -5
-9 -11 -9 -6 0 -17 -6 -24 -12 -36 -32 -46 -38 -65 -38 -11 0 -20 -7 -20 -15
0 -8 -7 -15 -15 -15 -8 0 -15 -4 -15 -10 0 -5 -9 -10 -20 -10 -11 0 -20 5 -20
10 0 6 5 10 10 10 6 0 10 5 10 11 0 15 22 35 48 43 12 4 22 12 22 17 0 5 7 9
15 9 8 0 15 3 15 8 0 4 16 16 35 26 19 11 35 23 35 28 0 4 5 8 11 8 16 0 39
27 39 46 0 9 -7 22 -16 29 -12 8 -15 20 -9 43 3 18 11 32 16 32 5 0 9 7 9 15
0 8 5 15 11 15 6 0 17 6 25 14 8 8 14 19 14 25 0 6 7 11 16 11 10 0 14 7 12
23 -2 17 -10 22 -38 24 -27 2 -41 -4 -62 -27z"/>
<path d="M980 5410 c0 -20 9 -39 25 -54 14 -13 25 -26 25 -30 0 -11 27 -36 39
-36 6 0 11 -4 11 -9 0 -5 10 -13 22 -17 31 -9 48 -29 48 -53 0 -19 -6 -21 -60
-21 l-60 0 0 -36 c0 -21 4 -33 10 -29 6 3 10 -3 10 -14 0 -12 5 -21 11 -21 6
0 17 -6 24 -12 35 -32 45 -38 60 -38 9 0 26 -11 39 -25 13 -14 31 -25 41 -25
10 0 28 -11 41 -25 13 -14 28 -25 34 -25 15 0 80 -69 80 -86 0 -8 9 -14 21
-14 22 0 49 -22 49 -39 0 -6 5 -11 11 -11 17 0 39 -27 39 -49 0 -12 4 -21 9
-21 5 0 12 -12 15 -26 7 -27 28 -54 43 -54 4 0 17 -11 27 -25 13 -18 28 -25
52 -25 18 0 34 -5 36 -12 5 -15 108 -28 131 -16 9 5 17 16 17 26 -1 21 -23 52
-39 52 -6 0 -11 7 -11 15 0 19 -47 65 -66 65 -8 0 -12 5 -9 10 3 6 -1 10 -9
10 -9 0 -16 4 -16 9 0 5 -11 12 -25 15 -21 5 -25 12 -25 41 0 19 5 35 10 35 6
0 10 -7 10 -15 0 -8 7 -15 15 -15 8 0 15 -4 15 -10 0 -5 7 -10 15 -10 9 0 26
-11 39 -25 13 -14 26 -25 30 -25 3 0 24 -17 45 -37 62 -59 68 -63 106 -63 54
0 47 31 -25 101 -33 32 -60 61 -60 64 0 10 -28 35 -39 35 -6 0 -11 11 -11 25
0 16 -6 25 -15 25 -9 0 -15 9 -15 21 0 12 -16 36 -35 55 -19 18 -35 36 -35 39
0 8 -27 35 -35 35 -3 0 -16 11 -29 25 -13 14 -30 25 -39 25 -14 0 -27 20 -27
41 0 16 67 10 74 -6 3 -9 18 -15 37 -15 30 0 69 -30 69 -52 0 -5 9 -18 20 -30
11 -12 20 -32 20 -44 0 -12 7 -29 15 -38 8 -8 15 -22 15 -32 0 -9 11 -27 25
-40 14 -13 25 -30 25 -39 0 -27 26 -45 66 -45 25 0 44 -7 59 -22 62 -62 75
-62 75 -3 0 39 -3 45 -25 51 -16 4 -25 13 -25 25 0 10 -4 19 -10 19 -5 0 -10
18 -10 39 0 22 -7 46 -15 55 -8 8 -15 18 -15 22 0 4 -11 17 -25 30 -14 13 -25
30 -25 39 0 19 -23 45 -39 45 -6 0 -11 9 -11 21 0 24 -17 44 -48 53 -12 4 -22
12 -22 17 0 5 -5 9 -11 9 -14 0 -39 25 -39 39 0 6 -7 11 -15 11 -8 0 -15 5
-15 11 0 22 -35 38 -80 39 -35 0 -52 -6 -72 -25 -29 -26 -44 -31 -50 -16 -1 6
-50 12 -108 15 -58 4 -106 11 -108 16 -2 6 -10 10 -18 10 -8 0 -14 4 -14 9 0
4 -20 16 -45 25 -25 10 -45 22 -45 27 0 5 -9 9 -19 9 -11 0 -26 7 -35 15 -8 8
-17 15 -21 15 -6 0 -19 10 -50 38 -7 6 -23 12 -34 12 -17 0 -21 -6 -21 -30z"/>
<path d="M3863 5063 c-35 -2 -63 -8 -63 -13 0 -6 -62 -10 -150 -10 -91 0 -150
-4 -150 -10 0 -5 -11 -12 -25 -16 -14 -3 -22 -10 -19 -15 3 -5 -35 -9 -86 -9
-68 0 -95 -4 -106 -15 -10 -9 -34 -15 -65 -15 -27 0 -49 -4 -49 -10 0 -5 -11
-10 -24 -10 -13 0 -26 -5 -28 -11 -2 -6 -25 -13 -51 -16 -26 -3 -47 -10 -47
-14 0 -5 -11 -9 -25 -9 -14 0 -25 -4 -25 -10 0 -5 -8 -10 -17 -10 -10 0 -31
-7 -47 -15 -15 -8 -41 -15 -57 -15 -16 0 -29 -4 -29 -10 0 -13 -54 -40 -80
-40 -11 0 -20 -4 -20 -10 0 -5 -16 -12 -35 -16 -19 -3 -35 -10 -35 -15 0 -5
-7 -9 -15 -9 -8 0 -15 -4 -15 -10 0 -5 -11 -10 -24 -10 -14 0 -31 -7 -40 -15
-8 -8 -19 -15 -25 -15 -6 0 -11 -4 -11 -10 0 -5 -11 -10 -25 -10 -16 0 -25 -6
-25 -15 0 -10 -10 -15 -34 -15 -26 0 -36 -5 -41 -20 -4 -11 -11 -18 -16 -15
-5 4 -9 1 -9 -4 0 -6 -7 -11 -15 -11 -8 0 -15 -4 -15 -10 0 -5 -8 -10 -19 -10
-10 0 -26 -11 -37 -24 -10 -14 -28 -27 -41 -31 -13 -3 -23 -10 -23 -15 0 -6
-5 -10 -11 -10 -6 0 -17 -6 -24 -12 -33 -30 -45 -38 -55 -38 -5 0 -10 -7 -10
-16 0 -8 -4 -12 -10 -9 -5 3 -10 -1 -10 -9 0 -9 -5 -16 -11 -16 -13 0 -139
-127 -139 -140 0 -6 -7 -10 -15 -10 -8 0 -15 -5 -15 -11 0 -14 -25 -39 -39
-39 -6 0 -11 -11 -11 -25 0 -14 -4 -25 -9 -25 -5 0 -13 -10 -17 -22 -4 -13
-15 -30 -25 -39 -11 -9 -19 -25 -19 -36 0 -10 -7 -28 -15 -39 -8 -10 -15 -29
-15 -41 0 -13 -4 -23 -10 -23 -5 0 -10 -16 -10 -35 0 -24 -5 -35 -15 -35 -22
0 -22 -486 0 -516 8 -10 15 -41 15 -67 0 -30 4 -46 10 -42 6 4 10 -10 10 -34
0 -30 4 -41 15 -41 11 0 15 -12 15 -45 0 -32 6 -52 20 -67 10 -11 22 -41 26
-64 3 -24 10 -44 15 -44 5 0 9 -18 9 -40 0 -22 5 -40 11 -40 21 0 39 -29 39
-64 0 -20 4 -36 10 -36 5 0 12 -11 16 -25 3 -14 10 -25 15 -25 5 0 9 -9 9 -21
0 -11 7 -27 15 -35 8 -9 15 -26 15 -40 0 -13 5 -24 10 -24 6 0 10 -7 10 -15 0
-8 4 -15 10 -15 5 0 12 -11 16 -25 3 -14 10 -25 15 -25 5 0 9 -16 9 -35 0 -19
5 -35 11 -35 17 0 39 -27 39 -48 0 -11 7 -22 15 -26 8 -3 15 -17 15 -31 0 -15
4 -24 10 -20 6 3 10 -1 10 -9 0 -9 4 -16 8 -16 5 0 17 -17 28 -37 10 -21 29
-47 42 -58 12 -11 22 -28 22 -38 0 -9 7 -17 15 -17 8 0 15 -7 15 -15 0 -8 5
-15 10 -15 6 0 10 -9 10 -20 0 -11 5 -20 10 -20 6 0 10 -7 10 -15 0 -8 7 -15
15 -15 8 0 15 -7 15 -16 0 -8 5 -12 10 -9 6 3 10 0 10 -8 0 -8 7 -17 15 -21 8
-3 15 -15 15 -26 0 -17 6 -20 49 -20 30 0 52 -5 55 -12 5 -10 7 -10 12 0 3 6
12 12 20 12 8 0 14 10 14 25 0 14 -5 25 -11 25 -14 0 -39 25 -39 39 0 6 -5 11
-11 11 -14 0 -39 25 -39 39 0 6 -5 11 -11 11 -14 0 -39 25 -39 39 0 6 -7 11
-15 11 -8 0 -15 6 -15 13 0 7 -9 19 -19 27 -11 7 -18 17 -15 22 3 4 0 8 -5 8
-6 0 -11 7 -11 15 0 8 -4 15 -10 15 -5 0 -10 5 -10 11 0 14 -25 39 -39 39 -6
0 -11 9 -11 21 0 11 -6 27 -12 34 -38 42 -68 97 -68 123 0 11 -8 22 -20 25
-15 4 -20 14 -20 36 0 21 -5 31 -15 31 -9 0 -15 9 -15 25 0 14 -4 25 -10 25
-5 0 -10 11 -10 24 0 13 -7 26 -15 30 -11 4 -15 20 -15 56 0 27 -4 50 -10 50
-5 0 -12 11 -16 25 -3 14 -10 22 -15 19 -5 -3 -9 22 -9 56 0 42 -5 66 -15 77
-14 13 -15 53 -13 286 2 205 6 271 16 275 6 2 12 19 12 38 0 19 5 34 10 34 6
0 10 7 10 15 0 8 7 15 15 15 10 0 15 10 15 30 0 20 9 39 25 54 14 13 25 28 25
35 0 6 4 11 9 11 5 0 12 16 15 35 5 26 12 35 26 35 14 0 20 7 20 24 0 14 7 31
15 40 8 8 15 17 15 21 0 10 28 35 39 35 6 0 11 11 11 25 0 14 5 25 10 25 6 0
10 7 10 15 0 8 7 15 15 15 8 0 15 5 15 10 0 11 15 31 38 53 7 7 18 18 25 25 7
7 29 30 50 52 20 21 37 43 37 49 0 6 7 11 16 11 8 0 13 4 10 9 -3 5 5 12 18
15 14 3 28 15 31 26 3 11 10 20 14 20 9 0 59 40 80 63 8 9 22 17 30 17 7 0 29
16 47 36 19 19 43 36 54 37 11 1 20 7 20 14 0 7 7 13 15 13 8 0 15 5 15 10 0
6 9 10 20 10 11 0 23 7 26 15 4 8 15 15 25 15 10 0 19 5 19 10 0 6 6 10 14 10
8 0 16 7 20 15 3 8 15 15 26 15 11 0 20 4 20 8 0 4 23 16 50 27 28 11 50 23
50 27 0 4 16 8 36 8 26 0 43 7 60 25 16 18 33 25 59 25 20 0 43 7 51 15 9 8
33 15 55 15 21 0 39 4 39 8 0 11 90 42 123 42 15 0 27 4 27 9 0 5 19 12 43 16
23 5 45 9 50 10 4 1 18 3 31 4 14 0 31 8 40 16 11 11 39 15 110 15 57 0 96 4
96 10 0 5 18 13 40 16 22 4 40 10 40 15 0 5 79 9 175 9 108 0 175 -4 175 -10
0 -5 11 -12 25 -16 14 -3 25 -10 25 -15 0 -5 27 -9 60 -9 33 0 60 -4 60 -10 0
-5 7 -10 16 -10 23 0 114 -33 114 -42 0 -3 15 -10 32 -14 18 -3 40 -15 49 -25
9 -11 21 -19 27 -19 5 0 12 -7 16 -15 3 -8 17 -15 31 -15 15 0 36 -11 49 -25
13 -14 26 -25 30 -25 4 0 18 -11 32 -25 14 -14 30 -25 35 -25 17 0 169 -159
169 -176 0 -18 23 -44 39 -44 6 0 11 -12 11 -26 0 -14 6 -32 13 -39 29 -33 37
-45 37 -55 0 -5 5 -10 10 -10 6 0 10 -11 10 -24 0 -14 7 -31 15 -40 8 -8 15
-19 15 -24 0 -6 4 -12 10 -14 5 -1 10 -18 12 -35 1 -19 8 -33 15 -33 8 0 13
-13 13 -35 0 -19 5 -35 10 -35 6 0 10 -5 10 -11 0 -6 7 -17 15 -25 9 -10 15
-34 15 -64 0 -28 5 -50 12 -52 6 -2 13 -15 15 -29 7 -40 8 -44 15 -54 3 -5 7
-74 7 -153 2 -141 -20 -312 -40 -312 -5 0 -9 -20 -9 -45 0 -36 -5 -51 -25 -69
-16 -15 -25 -34 -25 -54 0 -17 -6 -32 -15 -36 -9 -3 -15 -18 -15 -38 0 -22 -7
-39 -20 -48 -11 -8 -20 -25 -20 -38 0 -12 -7 -25 -15 -28 -8 -4 -15 -15 -15
-25 0 -10 -4 -19 -10 -19 -5 0 -10 -6 -10 -14 0 -8 -7 -16 -15 -20 -8 -3 -15
-15 -15 -26 0 -11 -5 -20 -11 -20 -14 0 -39 -25 -39 -39 0 -6 -5 -11 -10 -11
-14 0 -90 -75 -90 -89 0 -6 -5 -11 -10 -11 -6 0 -22 -11 -36 -25 -14 -14 -31
-25 -39 -25 -8 0 -15 -5 -15 -11 0 -14 -25 -39 -39 -39 -6 0 -11 -4 -11 -10 0
-5 -8 -10 -19 -10 -10 0 -26 -11 -35 -25 -9 -14 -23 -25 -31 -25 -8 0 -15 -5
-15 -11 0 -14 -25 -39 -39 -39 -6 0 -11 -4 -11 -10 0 -5 -11 -12 -25 -16 -14
-3 -25 -10 -25 -15 0 -5 -5 -9 -11 -9 -6 0 -17 -6 -24 -13 -35 -31 -45 -37
-60 -37 -9 0 -26 -11 -39 -25 -13 -14 -31 -25 -40 -25 -10 0 -24 -7 -32 -15
-9 -8 -26 -15 -40 -15 -13 0 -24 -4 -24 -10 0 -5 -7 -10 -15 -10 -8 0 -15 -4
-15 -10 0 -5 -17 -12 -37 -16 -21 -4 -40 -10 -43 -14 -3 -3 -41 -14 -85 -24
-44 -9 -81 -21 -83 -26 -5 -14 -702 -13 -702 0 0 5 -27 17 -60 27 -33 9 -60
19 -60 23 0 4 -18 10 -40 14 -22 3 -40 11 -40 16 0 6 -9 10 -20 10 -11 0 -20
5 -20 10 0 6 -11 10 -24 10 -13 0 -26 7 -30 15 -3 8 -15 15 -26 15 -11 0 -20
5 -20 10 0 6 -7 10 -15 10 -8 0 -15 7 -15 15 0 9 -9 15 -25 15 -14 0 -25 5
-25 10 0 6 -6 10 -13 10 -8 0 -20 11 -27 25 -7 14 -19 25 -26 25 -15 0 -104
83 -104 97 0 5 -18 28 -40 52 -22 23 -40 51 -40 62 0 10 -4 19 -8 19 -12 0
-42 56 -42 79 0 12 -4 21 -9 21 -4 0 -11 27 -15 60 -4 33 -11 60 -16 60 -6 0
-10 14 -10 30 0 17 -4 30 -9 30 -6 0 -24 282 -21 335 9 139 14 185 21 185 5 0
9 9 9 19 0 11 4 22 9 26 6 3 13 26 17 50 3 25 10 45 15 45 5 0 9 9 9 19 0 21
31 81 42 81 4 0 10 17 14 38 4 20 15 44 26 53 10 9 18 21 18 28 0 6 7 11 15
11 8 0 15 5 15 11 0 14 25 39 39 39 6 0 11 5 11 10 0 14 75 90 89 90 6 0 11 5
11 11 0 11 25 39 35 39 4 0 13 7 21 15 9 8 26 15 40 15 17 0 24 5 24 20 0 15
7 20 25 20 16 0 25 6 25 15 0 9 9 15 25 15 14 0 25 5 25 10 0 6 7 10 15 10 8
0 15 7 15 15 0 10 10 15 31 15 21 0 40 9 55 25 15 16 34 25 54 25 16 0 30 5
30 10 0 6 9 10 21 10 23 0 79 30 79 42 0 4 22 8 48 8 27 0 57 6 68 15 10 8 40
15 67 15 26 0 47 4 47 8 0 10 1 10 240 11 126 1 196 -2 198 -9 2 -5 14 -10 27
-10 12 0 25 -7 29 -15 4 -10 20 -15 51 -15 25 0 45 -4 45 -10 0 -5 7 -10 15
-10 8 0 15 -6 15 -13 0 -7 10 -14 22 -14 13 -1 24 -7 26 -13 2 -5 12 -10 21
-10 10 0 27 -11 37 -25 10 -14 29 -25 41 -25 14 0 23 -6 23 -15 0 -8 5 -15 11
-15 14 0 39 -25 39 -39 0 -6 5 -11 11 -11 14 0 39 -25 39 -39 0 -6 4 -11 10
-11 5 0 12 -11 16 -25 3 -14 9 -25 13 -25 4 0 15 -13 24 -30 15 -25 18 -53 16
-185 0 -85 -5 -155 -10 -155 -5 0 -11 -11 -15 -25 -3 -14 -10 -25 -15 -25 -5
0 -9 -18 -9 -40 0 -29 -4 -40 -15 -40 -11 0 -15 -12 -15 -45 0 -25 -4 -45 -10
-45 -5 0 -10 -7 -10 -15 0 -8 -7 -15 -15 -15 -10 0 -15 -10 -15 -30 0 -22 -10
-40 -35 -64 -19 -19 -35 -39 -35 -45 0 -6 -7 -11 -15 -11 -8 0 -15 -5 -15 -11
0 -14 -25 -39 -39 -39 -6 0 -11 -5 -11 -11 0 -11 -25 -39 -35 -39 -10 0 -35
-28 -35 -39 0 -6 -5 -11 -11 -11 -14 0 -39 -25 -39 -39 0 -6 -5 -11 -10 -11
-6 0 -23 -11 -38 -25 -15 -14 -32 -25 -39 -25 -7 0 -13 -4 -13 -9 0 -5 -11
-12 -25 -15 -14 -4 -25 -11 -25 -16 0 -6 -7 -10 -15 -10 -8 0 -15 -4 -15 -10
0 -5 -11 -10 -25 -10 -16 0 -25 -6 -25 -15 0 -9 -9 -15 -25 -15 -14 0 -25 -4
-25 -10 0 -5 -9 -10 -20 -10 -11 0 -23 -7 -26 -15 -5 -11 -22 -15 -65 -15 -32
0 -59 -4 -59 -8 0 -34 -330 -57 -397 -27 -18 8 -33 19 -33 25 0 5 -20 10 -45
10 -31 0 -47 5 -51 15 -4 8 -12 15 -20 15 -17 0 -65 47 -89 88 -11 18 -23 32
-27 32 -4 0 -8 56 -8 125 0 77 4 125 10 125 6 0 10 11 10 25 0 16 6 25 15 25
11 0 15 11 15 40 0 22 3 40 8 40 4 0 16 16 26 35 11 19 23 35 28 35 4 0 8 11
8 25 0 16 6 25 15 25 8 0 15 7 15 15 0 8 5 15 10 15 6 0 10 7 10 15 0 12 153
175 165 175 13 0 85 36 85 42 0 5 27 8 60 8 33 0 60 -4 60 -10 0 -5 7 -10 15
-10 8 0 15 -4 15 -9 0 -4 16 -11 36 -14 20 -3 43 -15 52 -25 10 -11 27 -22 40
-26 13 -4 22 -15 22 -27 0 -10 5 -19 10 -19 6 0 10 -7 10 -15 0 -8 7 -15 15
-15 12 0 15 -15 15 -71 0 -42 -5 -76 -12 -84 -30 -34 -38 -45 -38 -55 0 -6 -6
-18 -12 -25 -30 -33 -38 -45 -38 -55 0 -5 -7 -10 -15 -10 -8 0 -15 -5 -15 -11
0 -11 -25 -39 -35 -39 -10 0 -35 -28 -35 -39 0 -6 -11 -11 -25 -11 -14 0 -25
-4 -25 -9 0 -17 -63 -25 -74 -9 -6 8 -21 20 -33 27 -13 6 -23 18 -23 26 0 8
-4 15 -10 15 -21 0 -9 43 19 71 16 16 32 29 36 29 6 0 16 8 47 37 31 29 38 45
38 88 0 40 -2 45 -23 45 -12 0 -29 -9 -37 -20 -8 -11 -20 -20 -27 -20 -7 0
-13 -7 -13 -15 0 -9 -9 -15 -21 -15 -12 0 -32 -11 -45 -25 -13 -14 -32 -25
-44 -25 -15 0 -20 -6 -20 -25 0 -14 -4 -25 -10 -25 -5 0 -10 -7 -10 -15 0 -8
-4 -15 -10 -15 -6 0 -10 -34 -10 -83 0 -71 3 -85 20 -97 11 -8 20 -20 20 -27
0 -16 48 -63 65 -63 7 0 15 -5 17 -12 6 -16 140 -17 145 0 3 6 18 12 34 12 19
0 38 9 53 25 13 14 31 25 40 25 9 0 19 7 22 15 4 8 10 15 16 15 13 0 38 26 38
39 0 6 5 11 11 11 18 0 139 130 139 148 0 10 11 26 25 36 14 10 25 27 25 37 0
11 4 19 9 19 15 0 35 92 33 154 -2 60 -20 126 -34 126 -4 0 -8 9 -8 21 0 11
-6 27 -12 34 -31 34 -38 45 -38 57 -1 22 -37 58 -59 58 -11 0 -31 11 -45 25
-14 14 -34 25 -46 25 -11 0 -23 7 -26 15 -5 12 -28 15 -124 15 -96 0 -119 -3
-124 -15 -3 -9 -19 -15 -41 -15 -19 0 -35 -5 -35 -11 0 -16 -31 -38 -52 -39
-10 0 -18 -4 -18 -10 0 -5 -5 -10 -11 -10 -6 0 -24 -12 -39 -27 -45 -43 -58
-53 -70 -53 -5 0 -10 -9 -10 -20 0 -15 -7 -20 -25 -20 -15 0 -39 -15 -64 -40
-22 -22 -44 -40 -50 -40 -6 0 -11 -5 -11 -11 0 -14 -25 -39 -39 -39 -6 0 -11
-11 -11 -25 0 -14 -4 -25 -10 -25 -5 0 -10 -7 -10 -15 0 -8 -11 -25 -24 -38
-12 -13 -26 -40 -30 -60 -5 -28 -12 -37 -26 -37 -17 0 -20 -7 -20 -48 0 -27
-6 -57 -15 -68 -21 -27 -21 -222 0 -250 8 -10 15 -33 15 -49 0 -20 8 -36 25
-49 14 -10 25 -27 25 -37 0 -11 5 -19 10 -19 6 0 10 -11 10 -25 0 -14 5 -25
11 -25 14 0 39 -25 39 -39 0 -6 6 -11 13 -11 8 0 20 -11 27 -25 7 -14 19 -25
27 -25 7 0 13 -7 13 -15 0 -8 5 -15 10 -15 6 0 22 -11 36 -25 14 -14 36 -25
49 -25 14 0 25 -4 25 -8 0 -4 16 -14 36 -21 19 -7 38 -19 41 -27 3 -9 20 -14
47 -14 23 0 47 -5 54 -12 19 -19 260 -22 289 -3 13 9 46 15 78 15 30 0 55 4
55 9 0 10 78 41 103 41 9 0 17 5 17 10 0 6 11 10 25 10 33 0 75 20 75 37 0 8
12 13 35 13 22 0 38 6 41 15 4 8 10 15 16 15 5 0 16 6 23 12 35 31 45 38 59
38 8 0 53 38 101 85 47 47 90 85 95 85 6 0 10 7 10 16 0 8 5 12 10 9 6 -3 10
1 10 9 0 9 7 16 15 16 8 0 15 5 15 11 0 14 25 39 39 39 6 0 11 5 11 11 0 6 15
25 33 43 18 18 36 40 40 50 4 10 16 20 27 23 13 3 20 14 20 29 0 13 11 34 25
48 14 14 25 30 25 36 0 5 4 10 10 10 5 0 12 11 16 25 3 14 10 25 15 25 5 0 9
7 9 15 0 8 5 15 10 15 6 0 10 11 10 24 0 14 7 31 15 40 8 8 15 29 15 46 0 17
6 38 13 45 6 8 18 21 25 29 13 17 18 302 5 308 -23 9 -43 74 -43 135 0 44 -5
69 -15 79 -8 9 -15 31 -15 50 0 19 -4 34 -10 34 -5 0 -10 5 -10 11 0 6 -6 17
-12 24 -28 31 -38 44 -38 51 0 4 -16 21 -35 40 -19 18 -35 37 -35 43 0 6 -7
11 -15 11 -8 0 -15 5 -15 10 0 6 -5 10 -11 10 -6 0 -17 6 -24 13 -26 22 -40
32 -78 51 -20 11 -37 23 -37 28 0 4 -11 8 -25 8 -14 0 -25 4 -25 10 0 5 -11
12 -25 16 -14 3 -25 10 -25 15 0 5 -15 9 -34 9 -19 0 -36 5 -38 12 -2 6 -31
13 -66 16 -34 2 -62 8 -62 13 0 5 -15 9 -33 9 -18 0 -38 5 -43 10 -7 7 -70 9
-180 7 -174 -5 -244 -13 -244 -28 0 -5 -38 -9 -84 -9 -60 0 -89 -4 -99 -14 -7
-8 -34 -16 -58 -17 -24 -2 -46 -5 -49 -9 -14 -14 -74 -40 -96 -40 -14 0 -35
-9 -47 -21 -12 -11 -34 -23 -49 -26 -16 -3 -28 -9 -28 -14 0 -5 -11 -9 -24 -9
-13 0 -31 -11 -42 -25 -10 -14 -29 -25 -41 -25 -14 0 -23 -6 -23 -15 0 -10
-10 -15 -27 -16 -16 0 -22 -3 -15 -6 8 -3 5 -11 -12 -24 -13 -10 -27 -19 -30
-19 -4 0 -22 -16 -40 -35 -19 -19 -39 -35 -45 -35 -5 0 -21 -11 -35 -25 -14
-14 -30 -25 -36 -25 -5 0 -10 -7 -10 -15 0 -8 -5 -15 -11 -15 -6 0 -17 -6 -25
-14 -8 -8 -14 -19 -14 -25 0 -6 -5 -11 -11 -11 -6 0 -17 -6 -25 -14 -8 -8 -14
-19 -14 -25 0 -6 -7 -11 -15 -11 -8 0 -15 -7 -15 -15 0 -8 -4 -15 -10 -15 -5
0 -10 -9 -10 -20 0 -11 -7 -20 -15 -20 -8 0 -15 -5 -15 -11 0 -6 -20 -32 -45
-57 -25 -25 -45 -49 -45 -53 0 -4 -6 -14 -12 -21 -7 -7 -21 -30 -30 -50 -10
-21 -22 -38 -28 -38 -5 0 -10 -16 -10 -35 0 -19 -5 -35 -11 -35 -21 0 -39 -29
-39 -64 0 -20 -4 -36 -10 -36 -5 0 -12 -11 -16 -25 -3 -14 -10 -25 -15 -25 -5
0 -9 -15 -9 -34 0 -21 -6 -36 -15 -40 -11 -4 -15 -21 -15 -61 0 -41 -5 -61
-19 -76 -15 -16 -20 -43 -26 -134 -8 -124 2 -305 16 -305 5 0 9 -7 9 -15 0 -8
5 -15 10 -15 6 0 10 -15 10 -34 0 -19 7 -41 15 -50 8 -8 15 -22 15 -32 0 -9
11 -27 25 -40 14 -13 25 -26 25 -29 0 -4 15 -21 34 -39 18 -18 36 -44 40 -59
3 -14 15 -28 26 -32 10 -3 22 -15 25 -26 4 -10 11 -19 16 -19 5 0 9 -7 9 -15
0 -8 9 -15 20 -15 13 0 22 -9 26 -25 4 -15 13 -25 24 -25 32 0 50 -11 50 -31
0 -10 7 -19 15 -19 8 0 15 -4 15 -9 0 -5 10 -13 22 -17 12 -3 36 -22 54 -40
17 -19 35 -34 40 -34 5 0 21 -11 36 -25 15 -14 36 -25 48 -25 11 0 20 -4 20
-9 0 -5 10 -13 23 -17 12 -4 29 -15 38 -25 8 -10 27 -21 42 -24 15 -4 27 -11
27 -16 0 -5 9 -9 20 -9 11 0 20 -4 20 -10 0 -5 18 -10 40 -10 29 0 40 -4 40
-15 0 -12 15 -15 75 -15 41 0 75 -4 75 -9 0 -5 11 -12 25 -15 14 -4 25 -11 25
-16 0 -6 105 -10 285 -10 160 0 285 4 285 9 0 5 11 12 25 15 14 4 25 11 25 16
0 6 27 10 61 10 40 0 65 5 75 15 9 8 33 15 55 15 21 0 39 5 39 10 0 6 6 10 14
10 8 0 16 5 18 11 2 6 21 13 43 16 22 3 42 9 43 14 2 5 10 9 18 9 8 0 14 5 14
10 0 6 8 10 19 10 10 0 24 7 31 15 7 8 28 15 47 15 23 0 41 8 57 25 13 14 33
25 45 25 11 0 21 4 21 10 0 5 16 12 35 16 19 3 35 10 35 15 0 5 7 9 15 9 8 0
15 5 15 10 0 6 11 10 24 10 14 0 31 7 40 15 8 8 19 15 25 15 6 0 11 4 11 9 0
5 11 12 25 15 14 4 25 11 25 16 0 6 11 10 25 10 14 0 25 5 25 11 0 17 27 39
49 39 12 0 21 5 21 10 0 6 7 10 15 10 8 0 15 7 15 15 0 8 5 15 10 15 19 0 190
167 190 185 0 10 28 35 39 35 6 0 11 18 11 40 0 23 5 40 11 40 16 0 38 31 39
53 0 9 5 17 10 17 6 0 10 9 10 21 0 23 30 79 42 79 4 0 8 11 8 24 0 14 4 27 9
31 6 3 13 26 17 50 3 25 10 42 15 39 5 -3 9 4 9 15 0 12 6 21 13 21 9 0 14 17
16 56 1 38 8 62 20 75 12 13 20 43 24 87 4 37 11 68 17 70 13 5 14 579 0 584
-5 2 -12 35 -15 73 -6 77 -23 145 -37 145 -4 0 -8 29 -8 65 0 40 -4 65 -11 65
-17 0 -39 27 -39 49 0 12 -4 21 -9 21 -5 0 -13 9 -16 21 -4 11 -22 36 -41 56
-19 19 -34 43 -34 54 0 10 -7 19 -15 19 -8 0 -15 5 -15 11 0 14 -25 39 -39 39
-6 0 -11 5 -11 11 0 14 -25 39 -39 39 -6 0 -11 5 -11 11 0 14 -25 39 -39 39
-6 0 -11 7 -11 15 0 8 -9 15 -20 15 -11 0 -20 5 -20 10 0 6 -5 10 -11 10 -7 0
-22 11 -35 25 -13 14 -28 25 -34 25 -6 0 -21 11 -34 25 -13 14 -33 25 -45 25
-11 0 -21 5 -21 10 0 6 -11 10 -24 10 -14 0 -31 7 -40 15 -8 8 -19 15 -25 15
-6 0 -11 4 -11 9 0 4 -21 11 -47 14 -26 3 -49 10 -51 16 -2 6 -10 11 -18 11
-8 0 -14 4 -14 9 0 5 -26 11 -57 13 -31 3 -59 10 -61 16 -2 8 -31 12 -78 12
-41 0 -74 4 -74 9 0 5 -11 12 -25 15 -14 4 -25 11 -25 16 0 6 -53 10 -134 10
-74 0 -136 4 -138 9 -4 11 -168 20 -255 14z"/>
<path d="M6523 4675 c-7 -8 -13 -19 -13 -25 0 -5 -16 -10 -36 -10 -19 0 -42
-7 -50 -15 -9 -8 -26 -15 -40 -15 -13 0 -24 -4 -24 -10 0 -5 -7 -10 -15 -10
-8 0 -15 -4 -15 -10 0 -5 -15 -10 -34 -10 -19 0 -41 -7 -50 -15 -8 -8 -24 -15
-35 -15 -12 0 -21 -4 -21 -10 0 -5 -16 -10 -36 -10 -19 0 -42 -7 -50 -15 -9
-8 -33 -15 -55 -15 -21 0 -39 -4 -39 -10 0 -5 -11 -12 -25 -16 -14 -3 -25 -10
-25 -15 0 -5 -16 -9 -35 -9 -19 0 -35 -4 -35 -10 0 -5 -15 -10 -34 -10 -48 0
-101 -52 -83 -81 7 -11 23 -19 39 -19 26 0 28 -3 28 -40 l0 -40 75 0 c41 0 75
-3 75 -6 0 -15 -61 -64 -79 -64 -14 0 -21 -9 -26 -31 -9 -39 7 -58 30 -35 9 9
27 16 41 16 13 0 24 5 24 10 0 6 7 10 15 10 8 0 15 4 15 9 0 5 28 11 62 13 35
3 64 10 66 16 2 7 11 12 21 12 9 0 26 7 37 15 10 8 29 15 42 15 12 0 22 5 22
10 0 6 23 10 50 10 38 0 50 4 50 15 0 8 6 15 14 15 8 0 16 4 18 10 2 5 18 10
36 12 18 1 32 8 32 15 0 7 11 13 25 13 20 0 25 5 25 25 0 14 -4 25 -10 25 -5
0 -10 23 -10 50 l0 50 45 0 c25 0 45 5 45 10 0 6 7 10 15 10 19 0 21 75 3 84
-10 5 -10 7 0 12 17 8 15 72 -2 90 -18 18 -57 18 -73 -1z"/>
<path d="M450 4093 c-27 -11 -38 -30 -45 -76 -4 -26 -11 -47 -16 -47 -5 0 -9
-11 -9 -25 0 -14 -5 -25 -11 -25 -6 0 -17 -7 -25 -15 -11 -11 -37 -15 -90 -15
-43 0 -74 -4 -74 -10 0 -5 -8 -10 -19 -10 -10 0 -27 -11 -37 -25 -10 -14 -24
-25 -31 -25 -9 0 -13 -16 -13 -50 0 -46 2 -50 24 -50 13 0 26 -6 28 -12 3 -8
33 -14 86 -16 45 -2 82 -8 82 -13 0 -5 6 -9 14 -9 8 0 16 -4 18 -9 2 -5 119
-13 261 -17 141 -4 257 -11 257 -15 0 -5 41 -9 90 -9 73 0 90 3 90 15 0 12 16
15 85 15 50 0 85 4 85 10 0 6 7 10 15 10 8 0 15 5 15 10 0 6 22 10 49 10 28 0
52 3 54 8 3 4 2 22 0 40 l-5 32 -74 0 c-72 0 -74 1 -74 25 0 16 6 25 15 25 8
0 15 5 15 10 0 6 7 10 16 10 8 0 12 -4 9 -10 -4 -6 16 -10 54 -10 32 0 61 4
63 9 2 5 50 12 108 15 58 3 108 5 113 6 4 0 7 16 7 35 0 24 -5 35 -15 35 -8 0
-15 5 -15 10 0 14 -27 12 -34 -2 -5 -10 -7 -10 -12 0 -3 7 -24 12 -50 12 -28
0 -43 -4 -39 -10 3 -5 -3 -10 -14 -10 -12 0 -21 5 -21 12 0 9 -3 9 -12 0 -7
-7 -17 -12 -23 -12 -5 0 -3 5 5 10 13 8 13 10 -2 10 -9 0 -20 -4 -23 -10 -3
-5 -26 -10 -51 -10 -40 0 -44 2 -44 25 0 22 4 25 35 25 28 0 35 4 35 19 0 24
-19 31 -86 31 -39 0 -56 -4 -60 -15 -4 -8 -10 -12 -15 -9 -5 3 -12 -2 -15 -10
-5 -13 -23 -16 -84 -16 -43 0 -80 3 -82 8 -1 4 -17 15 -35 25 -24 13 -55 17
-137 17 -61 0 -106 4 -106 10 0 5 -15 12 -34 15 -19 4 -43 15 -53 25 -20 18
-116 34 -143 23z"/>
<path d="M5690 3311 c0 -5 -11 -12 -24 -15 -17 -4 -25 -14 -28 -36 -5 -36 -2
-40 29 -40 13 0 23 -4 23 -9 0 -5 11 -12 25 -15 14 -4 25 -11 25 -16 0 -6 11
-10 25 -10 14 0 25 -4 25 -9 0 -5 -11 -12 -25 -15 -14 -4 -25 -11 -25 -16 0
-6 -5 -10 -11 -10 -6 0 -17 -6 -25 -14 -38 -39 5 -85 81 -86 42 0 53 -4 69
-25 14 -19 28 -25 58 -25 22 0 46 -7 54 -15 9 -8 26 -15 39 -15 19 0 35 -16
35 -36 0 -2 -25 -4 -55 -4 -30 0 -55 5 -55 10 0 6 -7 10 -16 10 -8 0 -22 7
-30 15 -9 8 -33 15 -55 15 -21 0 -39 5 -39 10 0 6 -11 10 -24 10 -14 0 -28 5
-31 10 -9 15 -57 12 -79 -5 -18 -13 -17 -15 12 -45 17 -16 41 -30 54 -30 25 0
123 -32 135 -43 3 -4 17 -7 29 -7 12 0 29 -7 38 -15 10 -10 35 -15 75 -15 34
0 61 -4 61 -8 0 -4 13 -15 29 -25 24 -14 56 -17 184 -17 109 0 156 -3 159 -12
3 -7 49 -13 141 -16 l137 -5 0 41 c0 34 -4 41 -24 46 -28 7 -56 63 -38 75 15
9 -7 71 -25 71 -7 0 -13 5 -13 10 0 6 -7 10 -15 10 -8 0 -33 18 -55 40 -35 35
-46 40 -85 40 -45 0 -45 0 -45 35 l0 34 112 3 c113 3 136 12 103 40 -9 7 -22
19 -30 26 -8 7 -42 12 -84 12 -64 0 -100 9 -163 41 -10 5 -106 9 -214 9 -160
0 -198 3 -210 15 -11 10 -36 15 -80 15 -41 0 -63 4 -59 10 4 6 -13 10 -44 10
-28 0 -51 -4 -51 -9z"/>
<path d="M1528 2973 c-16 -2 -28 -8 -28 -13 0 -4 -11 -11 -25 -14 -14 -4 -25
-11 -25 -16 0 -6 -7 -10 -15 -10 -8 0 -15 -4 -15 -10 0 -5 -12 -10 -27 -10
-16 0 -37 -7 -47 -15 -11 -8 -37 -15 -58 -15 -21 0 -38 -4 -38 -8 0 -12 -47
-32 -75 -32 -13 0 -30 -7 -39 -15 -8 -8 -22 -15 -32 -15 -9 0 -27 -11 -40 -25
-13 -14 -32 -25 -44 -25 -11 0 -20 -4 -20 -10 0 -5 -11 -12 -25 -16 -14 -3
-25 -10 -25 -15 0 -5 -11 -9 -25 -9 -16 0 -25 -6 -25 -15 0 -9 -9 -15 -21 -15
-19 0 -49 -21 -49 -35 0 -10 -28 -35 -39 -35 -6 0 -11 -5 -11 -11 0 -23 -30
-39 -73 -39 -31 0 -47 -5 -51 -15 -3 -8 -15 -15 -26 -15 -28 0 -80 -52 -80
-80 0 -21 3 -22 51 -18 35 4 52 1 56 -7 7 -20 66 -42 71 -27 2 7 10 12 18 12
9 0 13 4 10 9 -7 11 31 22 50 14 7 -2 16 -13 19 -24 4 -10 10 -19 15 -19 15 0
60 23 60 31 0 4 11 10 25 13 14 4 25 11 25 16 0 6 11 10 25 10 14 0 25 5 25
10 0 6 10 10 23 10 12 0 31 7 41 15 11 8 29 15 41 15 11 0 29 11 39 25 14 18
28 25 52 25 19 0 34 5 34 10 0 6 5 10 10 10 6 0 10 -11 10 -25 0 -18 -5 -25
-20 -25 -11 0 -20 -4 -20 -10 0 -5 -7 -10 -15 -10 -8 0 -15 -4 -15 -10 0 -5
-16 -12 -37 -16 -66 -12 -122 -94 -64 -94 22 0 71 23 71 33 0 4 16 7 35 7 22
0 38 6 41 15 4 8 12 15 20 15 8 0 14 5 14 10 0 6 9 10 20 10 11 0 23 7 26 15
4 8 10 12 15 9 14 -8 11 -34 -6 -50 -8 -9 -15 -33 -15 -55 0 -38 1 -39 35 -39
43 0 95 42 95 77 0 12 5 23 10 23 6 0 10 8 10 17 0 19 67 83 88 83 6 0 12 5
12 10 0 6 11 10 25 10 14 0 25 5 25 11 0 6 7 17 15 25 9 9 15 34 15 60 0 37 6
50 30 74 17 17 36 30 43 30 17 0 47 36 47 56 0 44 -74 60 -112 24 -13 -12 -36
-20 -55 -20 -31 0 -33 2 -33 35 0 25 4 35 16 35 11 0 14 9 12 37 -3 39 -8 42
-50 36z"/>
<path d="M5173 2462 c-7 -7 -13 -20 -13 -27 0 -16 46 -65 60 -65 5 0 12 -10
16 -22 8 -26 28 -48 43 -48 6 0 11 -4 11 -10 0 -10 76 -90 86 -90 10 0 34 -28
34 -39 0 -6 9 -11 20 -11 12 0 31 -11 44 -25 13 -14 29 -25 35 -25 7 0 22 -11
35 -25 13 -14 26 -25 30 -25 4 0 14 -7 22 -15 9 -8 26 -15 40 -15 13 0 24 -4
24 -10 0 -5 9 -10 20 -10 17 0 80 -51 80 -65 0 -11 28 -35 40 -35 10 0 21 -8
55 -37 7 -7 23 -13 34 -13 12 0 21 -5 21 -11 0 -14 25 -39 39 -39 6 0 11 -4
11 -10 0 -15 19 -12 36 4 18 18 18 56 1 56 -7 0 -19 16 -26 35 -7 19 -17 35
-22 35 -5 0 -9 7 -9 15 0 9 -9 15 -25 15 -16 0 -25 6 -25 15 0 8 -5 15 -11 15
-11 0 -39 24 -39 34 0 3 11 6 25 6 14 0 25 -4 25 -10 0 -5 7 -10 15 -10 9 0
26 -11 39 -25 13 -14 28 -25 35 -25 6 0 11 -5 11 -10 0 -19 78 -90 99 -90 12
0 21 -4 21 -9 0 -5 11 -12 25 -15 14 -4 25 -11 25 -16 0 -6 12 -10 26 -10 26
0 26 1 22 51 -4 42 -2 54 14 69 15 14 18 26 13 49 -4 17 -11 31 -16 31 -5 0
-9 5 -9 11 0 14 -25 39 -39 39 -6 0 -11 4 -11 9 0 5 -10 13 -22 17 -34 10 -48
29 -48 64 0 18 -6 33 -15 36 -8 4 -15 13 -15 21 0 25 -58 74 -95 80 -19 3 -35
10 -35 14 0 5 -11 9 -24 9 -14 0 -28 5 -31 10 -3 6 -19 10 -35 10 -16 0 -35 7
-44 15 -8 8 -29 15 -46 15 -19 0 -41 9 -58 25 -18 17 -38 25 -64 25 -20 0 -38
5 -40 12 -2 6 -30 13 -61 16 -31 2 -57 8 -57 13 0 5 -6 9 -14 9 -8 0 -16 5
-18 12 -6 17 -247 17 -265 0z m687 -322 c0 -5 -9 -10 -21 -10 -11 0 -17 5 -14
10 3 6 13 10 21 10 8 0 14 -4 14 -10z m80 -50 c0 -5 11 -12 25 -16 14 -3 25
-10 25 -15 0 -5 9 -9 19 -9 10 0 21 -7 25 -15 3 -8 13 -15 21 -15 9 0 13 -4
10 -10 -3 -5 -1 -10 6 -10 6 0 22 -11 35 -25 13 -14 30 -25 39 -25 9 0 15 -9
15 -25 0 -18 -5 -25 -19 -25 -10 0 -21 7 -25 15 -3 8 -12 15 -21 15 -8 0 -15
5 -15 10 0 6 -7 10 -15 10 -19 0 -55 35 -55 54 0 8 -10 18 -22 22 -26 8 -48
28 -48 43 0 6 -11 11 -25 11 -14 0 -25 5 -25 10 0 6 11 10 25 10 14 0 25 -4
25 -10z"/>
<path d="M2000 2260 c0 -5 -11 -10 -25 -10 -16 0 -25 -6 -25 -15 0 -9 -9 -15
-25 -15 -22 0 -25 -4 -25 -35 0 -19 -4 -35 -10 -35 -5 0 -10 5 -10 10 0 6 -5
10 -11 10 -11 0 -39 -25 -39 -35 0 -10 -27 -35 -38 -35 -5 0 -13 -11 -16 -25
-7 -27 -97 -125 -115 -125 -6 0 -11 -5 -11 -10 0 -14 -75 -90 -89 -90 -6 0
-11 -5 -11 -11 0 -14 -26 -39 -40 -39 -6 0 -9 -4 -5 -9 8 -14 -24 -41 -50 -41
-16 0 -25 -7 -29 -25 -4 -14 -14 -25 -22 -25 -17 0 -144 -125 -144 -141 0 -5
-7 -9 -15 -9 -21 0 -19 -7 10 -34 14 -13 25 -28 25 -35 0 -16 46 -14 64 4 8 8
19 15 25 15 6 0 11 7 11 15 0 8 7 15 15 15 9 0 26 11 39 25 13 14 28 25 35 25
6 0 11 5 11 10 0 6 16 10 35 10 31 0 35 -3 35 -25 0 -14 -4 -25 -10 -25 -5 0
-10 -7 -10 -15 0 -8 -4 -15 -9 -15 -5 0 -13 -10 -17 -22 -8 -26 -28 -48 -43
-48 -6 0 -11 -5 -11 -11 0 -11 -25 -39 -35 -39 -9 0 -27 -21 -42 -47 -15 -26
-3 -33 44 -26 28 5 32 9 38 49 3 24 10 44 14 44 5 0 27 18 49 40 22 22 49 40
61 40 13 0 21 6 21 16 0 14 7 15 38 10 20 -3 43 -6 50 -6 21 0 13 -31 -13 -52
-14 -11 -25 -24 -25 -29 0 -6 -6 -17 -12 -24 -32 -36 -40 -47 -35 -51 9 -10
47 21 47 37 0 10 11 20 25 23 18 5 25 13 25 31 0 14 4 25 10 25 5 0 12 11 16
25 4 15 13 25 25 25 15 0 19 9 21 50 2 28 8 50 13 51 6 0 13 9 18 21 4 11 16
22 27 25 15 4 20 14 20 39 0 30 3 34 25 34 14 0 25 5 25 11 0 11 25 39 35 39
11 0 65 58 65 69 0 6 5 11 10 11 6 0 10 -7 10 -15 0 -8 7 -15 15 -15 8 0 15 5
15 11 0 14 25 39 39 39 6 0 11 7 11 15 0 8 5 15 10 15 6 0 10 5 10 10 0 6 -9
10 -21 10 -22 0 -49 -22 -49 -39 0 -7 -28 -11 -75 -11 -61 0 -75 3 -75 16 0 8
-4 12 -10 9 -5 -3 -10 1 -10 9 0 9 -7 16 -15 16 -12 0 -15 13 -15 60 0 57 1
60 24 60 31 0 56 25 56 56 0 25 14 32 24 12 5 -10 7 -10 12 0 3 6 12 12 20 12
17 0 19 27 2 33 -7 2 4 7 25 11 28 5 37 12 37 27 0 22 -22 49 -39 49 -6 0 -11
-4 -11 -10z m-570 -895 c0 -8 -7 -15 -15 -15 -8 0 -15 7 -15 15 0 8 7 15 15
15 8 0 15 -7 15 -15z"/>
<path d="M2693 1944 c3 -3 -5 -16 -18 -28 -14 -13 -31 -49 -42 -87 -9 -35 -21
-65 -25 -67 -4 -2 -8 -10 -8 -18 0 -8 -7 -14 -15 -14 -8 0 -15 -7 -15 -15 0
-8 -4 -15 -10 -15 -5 0 -10 -9 -10 -20 0 -11 -7 -23 -15 -26 -8 -4 -15 -17
-15 -30 0 -13 -4 -24 -10 -24 -5 0 -10 -5 -10 -10 0 -10 -8 -22 -37 -55 -7 -7
-13 -16 -13 -20 0 -10 -28 -35 -39 -35 -6 0 -11 -7 -11 -15 0 -8 -5 -15 -11
-15 -14 0 -39 -25 -39 -39 0 -6 -9 -11 -20 -11 -25 0 -60 -30 -60 -51 0 -10
-6 -19 -12 -21 -7 -3 -13 -22 -13 -44 0 -33 7 -46 38 -76 35 -35 47 -58 29
-58 -5 0 -17 -16 -28 -35 -10 -19 -22 -35 -26 -35 -5 0 -8 -10 -8 -21 0 -12
-11 -32 -25 -45 -19 -17 -25 -33 -25 -64 0 -40 -17 -70 -39 -70 -6 0 -11 -16
-11 -36 0 -25 3 -33 13 -28 7 5 6 0 -3 -11 -11 -14 -12 -19 -2 -22 6 -3 12
-11 12 -19 0 -8 10 -14 24 -14 37 0 56 10 56 30 0 11 10 20 25 24 14 4 25 13
25 21 0 20 31 55 48 55 21 0 72 56 72 79 0 12 6 21 15 21 8 0 15 5 15 10 0 6
18 10 40 10 39 0 40 1 40 36 0 28 7 43 28 60 l27 24 10 -21 c7 -16 5 -24 -8
-34 -9 -7 -17 -17 -17 -23 0 -6 -6 -13 -12 -15 -10 -4 -9 -8 2 -16 20 -14 90
-14 90 0 0 14 25 39 39 39 6 0 11 11 11 25 0 28 10 43 62 92 23 22 38 42 38
53 0 5 5 10 10 10 6 0 10 9 10 20 0 11 7 23 15 26 8 4 15 13 15 22 0 8 3 13 6
9 10 -9 44 32 44 53 0 11 5 20 10 20 6 0 10 7 10 15 0 8 11 25 25 39 14 14 25
34 25 46 0 11 7 20 15 20 8 0 15 5 15 11 0 14 25 39 39 39 6 0 11 14 11 30 0
20 9 39 25 54 14 13 25 33 25 44 0 11 4 22 9 24 5 2 10 17 11 33 4 58 1 65
-25 65 -20 0 -25 -5 -25 -25 0 -14 -4 -25 -10 -25 -5 0 -10 23 -10 50 l0 50
-40 0 c-29 0 -40 -4 -40 -15 0 -8 -4 -15 -10 -15 -5 0 -10 -20 -10 -45 0 -41
-2 -45 -25 -45 -18 0 -25 5 -25 19 0 11 5 21 11 23 14 5 24 95 15 142 -4 21
-13 36 -21 36 -24 0 -77 -58 -71 -78 4 -11 -2 -23 -14 -32 -11 -8 -20 -24 -20
-36 0 -12 -11 -30 -25 -40 -18 -13 -25 -28 -25 -51 0 -23 -5 -33 -15 -33 -8 0
-15 -7 -15 -15 0 -8 -9 -15 -20 -15 -15 0 -19 6 -18 25 1 14 6 25 10 25 4 0 8
16 8 35 0 19 4 35 9 35 5 0 12 11 15 24 3 14 15 27 25 31 12 3 21 19 25 40 4
19 11 35 16 35 6 0 10 7 10 15 0 8 5 15 10 15 6 0 10 5 10 10 0 6 -29 10 -67
10 -36 0 -64 -3 -60 -6z m347 -254 c0 -5 -4 -10 -10 -10 -5 0 -10 -7 -10 -15
0 -8 -4 -15 -10 -15 -5 0 -10 11 -10 25 0 18 5 25 20 25 11 0 20 -4 20 -10z
m-50 -85 c0 -18 -5 -25 -20 -25 -11 0 -20 5 -20 10 0 6 5 10 10 10 6 0 10 7
10 15 0 8 5 15 10 15 6 0 10 -11 10 -25z"/>
<path d="M4640 1857 c0 -15 4 -27 9 -27 5 0 12 -13 16 -30 4 -16 11 -30 16
-30 5 0 9 -14 9 -31 0 -24 11 -42 50 -80 28 -27 50 -53 50 -58 0 -14 34 -71
43 -71 4 0 7 -7 7 -15 0 -8 5 -15 10 -15 6 0 10 -11 10 -24 0 -14 7 -31 15
-40 8 -8 15 -24 15 -35 0 -12 5 -21 11 -21 11 0 39 -25 39 -35 0 -3 11 -16 25
-29 14 -13 25 -31 25 -40 0 -9 4 -16 9 -16 5 0 12 -13 16 -28 3 -15 15 -34 25
-42 11 -8 20 -25 20 -37 0 -14 6 -23 15 -23 8 0 15 -4 15 -10 0 -5 11 -12 25
-16 14 -3 25 -10 25 -15 0 -5 15 -9 34 -9 44 0 50 18 42 121 -6 68 -5 79 8 79
9 0 16 9 16 20 0 11 -4 20 -10 20 -5 0 -10 13 -10 29 0 16 -7 36 -15 45 -8 8
-15 19 -15 25 0 6 -5 11 -11 11 -16 0 -39 27 -39 46 0 9 -11 27 -25 40 -14 13
-25 27 -25 32 0 6 -7 12 -15 16 -8 3 -15 12 -15 21 0 8 -4 15 -10 15 -5 0 -10
11 -10 25 0 14 6 25 13 25 7 0 21 -11 31 -25 10 -14 27 -25 37 -25 11 0 19 -5
19 -10 0 -10 8 -22 38 -55 6 -7 12 -18 12 -24 0 -6 5 -11 10 -11 6 0 10 -11
10 -25 0 -16 6 -25 15 -25 8 0 15 -5 15 -11 0 -14 25 -39 39 -39 6 0 11 18 11
40 0 29 -4 40 -15 40 -10 0 -15 11 -15 35 0 19 -4 35 -10 35 -5 0 -10 5 -10
10 0 12 -10 25 -53 70 -16 17 -33 30 -38 30 -5 0 -9 9 -9 20 0 11 -7 20 -15
20 -8 0 -25 11 -39 25 -14 14 -30 25 -36 25 -5 0 -10 5 -10 11 0 14 -25 39
-39 39 -6 0 -11 7 -11 15 0 8 -7 15 -15 15 -8 0 -15 5 -15 10 0 6 -11 10 -24
10 -13 0 -26 4 -28 10 -1 5 -63 13 -135 16 l-133 7 0 -26z m420 -342 c0 -8 7
-15 15 -15 10 0 15 -11 15 -35 0 -19 5 -35 10 -35 6 0 10 -7 10 -15 0 -8 7
-15 15 -15 8 0 15 -9 15 -20 0 -11 4 -20 10 -20 15 0 32 -39 25 -60 -7 -21
-35 -28 -35 -9 0 14 -25 39 -39 39 -6 0 -11 11 -11 25 0 14 -4 25 -9 25 -5 0
-13 10 -17 23 -4 12 -15 29 -25 38 -12 10 -19 30 -19 53 0 29 4 36 20 36 11 0
20 -7 20 -15z"/>
<path d="M3810 1752 c-8 -3 -20 -10 -27 -16 -7 -6 -19 -17 -28 -24 -21 -17
-22 -249 -1 -277 11 -15 11 -22 0 -44 -20 -38 -19 -234 1 -255 10 -10 15 -35
15 -75 0 -40 -5 -65 -15 -75 -25 -25 -19 -54 15 -61 49 -11 70 1 70 41 0 22 6
37 15 40 8 4 15 13 15 21 0 9 11 26 25 39 16 15 25 34 25 54 0 28 18 60 35 60
10 0 35 28 35 39 0 6 7 11 15 11 10 0 15 -11 15 -35 0 -19 5 -35 10 -35 6 0
10 -7 10 -15 0 -8 4 -15 10 -15 5 0 13 -18 16 -40 5 -32 11 -40 28 -40 28 0
56 20 39 27 -9 3 -13 33 -13 99 0 75 -3 96 -15 100 -11 5 -15 23 -15 76 0 48
5 74 15 84 9 9 15 34 15 60 0 27 -6 52 -15 60 -8 9 -15 29 -15 45 0 18 -4 28
-10 24 -6 -4 -10 18 -10 59 l0 66 -47 1 c-27 1 -82 3 -123 4 -41 1 -82 0 -90
-3z"/>
<path d="M1570 1340 c0 -5 -7 -10 -15 -10 -19 0 -120 -102 -127 -128 -5 -18
-2 -22 19 -22 21 0 24 4 20 21 -4 15 0 23 12 26 10 3 24 16 31 29 8 13 17 24
22 24 9 0 68 57 68 65 0 3 -7 5 -15 5 -8 0 -15 -4 -15 -10z"/>
<path d="M1380 1190 c0 -5 5 -10 10 -10 6 0 10 5 10 10 0 6 -4 10 -10 10 -5 0
-10 -4 -10 -10z"/>
</g>
</svg>
